<svg width="141" height="98" viewBox="0 0 141 98" fill="none" xmlns="http://www.w3.org/2000/svg">
<path d="M3.74291 89.1355H4.74291C4.74291 89.0368 4.72829 88.9386 4.69951 88.8441L3.74291 89.1355ZM67.2429 2.13548L67.288 3.13447L67.2429 2.13548ZM88.7429 79.2987L88.8538 78.3049C88.8213 78.3013 88.7886 78.2992 88.7559 78.2988L88.7429 79.2987ZM88.7429 96.6302V97.6302C89.1343 97.6302 89.4897 97.4018 89.6524 97.0458C89.8151 96.6899 89.7552 96.2717 89.499 95.9757L88.7429 96.6302ZM3.74291 96.6302H2.74291C2.74291 97.1825 3.19063 97.6302 3.74291 97.6302V96.6302ZM60.5303 73.1779C60.0013 73.0192 59.4438 73.3194 59.2851 73.8484C59.1264 74.3774 59.4266 74.9349 59.9556 75.0936L60.5303 73.1779ZM70.1111 69.6319C70.3852 69.1524 70.2186 68.5416 69.7391 68.2675C69.2596 67.9935 68.6487 68.16 68.3747 68.6395L70.1111 69.6319ZM125.973 24.1357C125.973 24.688 126.421 25.1357 126.973 25.1357C127.526 25.1357 127.973 24.688 127.973 24.1357H125.973ZM4.69951 88.8441C0.92654 76.4589 0.18589 55.718 8.58632 37.7464C16.9433 19.8678 34.3945 4.61838 67.288 3.13447L67.1978 1.1365C33.5913 2.65258 15.4592 18.3198 6.77448 36.8995C-1.86674 55.3863 -1.10738 76.6454 2.78632 89.4269L4.69951 88.8441ZM136.743 58.6357C136.743 59.8325 136.227 61.0762 135.171 62.3685C134.112 63.6633 132.556 64.949 130.602 66.1995C126.695 68.7001 121.361 70.9557 115.739 72.83C110.127 74.7008 104.279 76.1748 99.3725 77.1282C96.9195 77.6048 94.7112 77.9495 92.8926 78.1491C91.0538 78.3508 89.6762 78.3967 88.8538 78.3049L88.632 80.2925C89.6846 80.41 91.2445 80.3419 93.1108 80.1371C94.9973 79.9301 97.2616 79.5758 99.754 79.0915C104.738 78.123 110.671 76.6277 116.372 74.7274C122.062 72.8305 127.572 70.513 131.68 67.8841C133.734 66.5699 135.479 65.1518 136.719 63.6343C137.962 62.1143 138.743 60.4373 138.743 58.6357H136.743ZM88.7559 78.2988C76.4819 78.1388 75.9432 74.9005 67.6009 71.7015L66.8849 73.569C74.4855 76.4835 76.0039 80.1327 88.7299 80.2986L88.7559 78.2988ZM87.9533 78.685C85.3972 81.9739 83.6901 84.7777 83.5554 87.7579C83.4187 90.7841 84.9049 93.7239 87.9868 97.2846L89.499 95.9757C86.5198 92.5337 85.4519 90.0939 85.5534 87.8482C85.657 85.5564 86.9804 83.1959 89.5325 79.9124L87.9533 78.685ZM88.7429 95.6302H3.74291V97.6302H88.7429V95.6302ZM4.74291 96.6302V89.1355H2.74291V96.6302H4.74291ZM66.4108 72.0806C65.6934 73.1569 64.3833 73.5106 62.9929 73.5107C62.3221 73.5107 61.6988 73.4264 61.2397 73.3404C61.0117 73.2976 60.8281 73.2552 60.7042 73.2242C60.6423 73.2087 60.5956 73.1962 60.5659 73.188C60.551 73.1839 60.5405 73.1809 60.5345 73.1791C60.5315 73.1783 60.5296 73.1777 60.5289 73.1775C60.5285 73.1774 60.5284 73.1774 60.5287 73.1774C60.5288 73.1775 60.529 73.1775 60.5292 73.1776C60.5294 73.1776 60.5296 73.1777 60.5297 73.1777C60.53 73.1778 60.5303 73.1779 60.2429 74.1357C59.9556 75.0936 59.9559 75.0937 59.9562 75.0938C59.9564 75.0938 59.9567 75.0939 59.957 75.094C59.9576 75.0942 59.9582 75.0944 59.959 75.0946C59.9604 75.095 59.9622 75.0955 59.9642 75.0961C59.9683 75.0973 59.9736 75.0989 59.9802 75.1008C59.9932 75.1045 60.0109 75.1096 60.0332 75.1157C60.0777 75.128 60.1404 75.1448 60.2191 75.1645C60.3764 75.2038 60.5991 75.2551 60.8711 75.3061C61.412 75.4075 62.1637 75.5107 62.9929 75.5107C64.6026 75.5106 66.7924 75.1141 68.075 73.1899L66.4108 72.0806ZM68.1111 73.1314L70.1111 69.6319L68.3747 68.6395L66.3747 72.1391L68.1111 73.1314ZM67.288 3.13447C83.611 2.39809 98.4046 3.24589 109.08 6.54909C114.414 8.19953 118.646 10.4406 121.533 13.335C124.395 16.2042 125.973 19.749 125.973 24.1357H127.973C127.973 19.2046 126.175 15.156 122.949 11.9225C119.748 8.71402 115.181 6.3431 109.672 4.63846C98.6605 1.23152 83.5887 0.397059 67.1978 1.1365L67.288 3.13447ZM136.534 53.718C136.697 55.6938 136.743 57.3686 136.743 58.6357H138.743C138.743 57.321 138.696 55.5908 138.528 53.5535L136.534 53.718Z" fill="white"/>
<path d="M94 44.5C94 37.5964 88.4036 32 81.5 32C74.5964 32 69 37.5964 69 44.5" stroke="white" stroke-width="2"/>
<path d="M140 44.5C140 37.5964 134.404 32 127.5 32C120.596 32 115 37.5964 115 44.5" stroke="white" stroke-width="2"/>
</svg>
