<svg width="451" height="451" viewBox="0 0 451 451" fill="none" xmlns="http://www.w3.org/2000/svg">
<path d="M0.5 219.429L103.31 230.476C121.27 202.38 147.934 166.607 180.251 131.556L108.405 135.486C107.374 135.543 106.386 135.916 105.575 136.556L0.5 219.429Z" fill="black"/>
<path d="M163.241 288.975C132.015 263.823 101.449 300.076 97.6808 304.798C97.4175 305.128 97.2099 305.492 97.0475 305.882L63.1892 387.143L142.719 354.794C143.191 354.602 143.642 354.33 144.034 354.003C173.711 329.301 175.529 315.336 163.241 288.975Z" fill="#FF9F2E"/>
<path d="M231.196 450.914L311.538 344.155C312.127 343.372 312.475 342.433 312.538 341.455L316.955 272.632C290.593 297.175 259.57 322.265 223.172 347.474L231.196 450.914Z" fill="black"/>
<path d="M339.021 155.156C339.021 179.838 319.038 199.846 294.387 199.846C269.736 199.846 249.752 179.838 249.752 155.156C249.752 130.474 269.736 110.466 294.387 110.466C319.038 110.466 339.021 130.474 339.021 155.156Z" fill="#455061"/>
<path fill-rule="evenodd" clip-rule="evenodd" d="M180.251 131.556C147.934 166.607 121.27 202.38 103.31 230.476L163.241 288.975L223.172 347.474C259.57 322.265 290.593 297.175 316.955 272.632C441.95 156.26 456.213 53.0328 448.956 6.50663C448.627 4.39252 446.924 2.79461 444.804 2.52399C346.307 -10.0493 252.95 52.7081 180.251 131.556ZM294.387 199.846C319.038 199.846 339.021 179.838 339.021 155.156C339.021 130.474 319.038 110.466 294.387 110.466C269.736 110.466 249.752 130.474 249.752 155.156C249.752 179.838 269.736 199.846 294.387 199.846Z" fill="white"/>
</svg>
